<svg width="1440" height="734" viewBox="0 0 1440 734" fill="none" xmlns="http://www.w3.org/2000/svg">
<g id="&#208;&#179;&#208;&#187;&#208;&#176;&#208;&#178;&#208;&#189;&#208;&#190;&#208;&#181; &#209;&#132;&#208;&#190;&#209;&#130;&#208;&#190;">
<path id="Rectangle" d="M498.255 -414.091C521.405 -452.97 567.777 -471.459 611.327 -459.173L1500.16 -208.432C1539.6 -197.305 1568.27 -163.236 1572.48 -122.47L1648.67 614.704C1655.09 676.8 1603.67 729.532 1541.43 724.682L217.565 621.519C69.717 609.998 -14.6107 447.219 61.2603 319.8L498.255 -414.091Z" fill="#2F80ED" fill-opacity="0.1"/>
<path id="Rectangle_2" d="M303.731 16.2014C319.105 -9.26546 345.019 -26.5655 374.434 -30.9998L1459.5 -194.569C1517.91 -203.373 1571.18 -159.906 1574.27 -100.921L1609.02 561.939C1612.19 622.335 1561.43 671.696 1501.15 666.853L226.239 564.422C115.135 555.496 52.2319 432.804 109.837 337.381L303.731 16.2014Z" fill="#2F80ED"/>
</g>
</svg>
