<svg width="1440" height="969" viewBox="0 0 1440 969" fill="none" xmlns="http://www.w3.org/2000/svg">
<g id="Group 5">
<path id="Rectangle" opacity="0.1" d="M1090.54 157.296C1073.67 131.222 1045.64 114.466 1014.69 111.949L-260.048 8.30582C-316.056 3.75209 -364.819 46.2263 -367.993 102.329L-410.589 855.294C-413.991 915.432 -363.847 964.906 -303.761 960.698L1189.38 856.116C1341.26 845.478 1426.03 675.786 1343.32 547.957L1090.54 157.296Z" fill="#2F80ED"/>
<path id="Rectangle_2" d="M1046.15 218.555C1029.24 193.208 1001.7 176.95 971.345 174.394L-161.242 79.0144C-217.115 74.3091 -265.937 116.456 -269.438 172.418L-307.008 772.968C-310.773 833.146 -260.823 882.944 -200.657 878.997L1156.92 789.931C1272.08 782.375 1335.92 653.037 1271.89 557.023L1046.15 218.555Z" fill="#2F80ED"/>
<path id="Rectangle_3" d="M1015.04 268.074C998.137 242.716 970.594 226.45 940.227 223.892L-77.076 138.173C-131.063 133.624 -178.854 172.896 -184.857 226.741L-238.145 704.754C-245.042 766.628 -194.333 819.696 -132.21 815.618L1144.03 731.842C1220.79 726.803 1263.36 640.601 1220.69 576.591L1015.04 268.074Z" fill="#3F8DF7"/>
</g>
</svg>
