<svg width="60" height="61" viewBox="0 0 60 61" fill="none" xmlns="http://www.w3.org/2000/svg">
<path d="M35 53H33V43.2C33 42.6477 32.5523 42.2 32 42.2C31.4477 42.2 31 42.6477 31 43.2V53H5V33H13.32C13.8723 33 14.32 32.5523 14.32 32C14.32 31.4477 13.8723 31 13.32 31H4C3.44772 31 3 31.4477 3 32V53H1C0.447715 53 0 53.4477 0 54V56C0 58.7614 2.23858 61 5 61H31C33.7614 61 36 58.7614 36 56V54C36 53.4477 35.5523 53 35 53ZM34 56C34 57.6569 32.6569 59 31 59H29V58C29 57.4477 28.5523 57 28 57C27.4477 57 27 57.4477 27 58V59H9V58C9 57.4477 8.55229 57 8 57C7.44772 57 7 57.4477 7 58V59H5C3.34315 59 2 57.6569 2 56V55H34V56Z" fill="#868686"/>
<path d="M52 7H54C54.5523 7 55 6.55228 55 6C55 5.44772 54.5523 5 54 5H52C50.3431 5 49 6.34315 49 8V9H48C47.4477 9 47 9.44772 47 10C47 10.5523 47.4477 11 48 11H49V14C49 14.5523 49.4477 15 50 15C50.5523 15 51 14.5523 51 14V11H52C52.5523 11 53 10.5523 53 10C53 9.44772 52.5523 9 52 9H51V8C51 7.44772 51.4477 7 52 7Z" fill="#868686"/>
<path d="M57 1H45C43.3431 1 42 2.34315 42 4V6C42 6.55228 42.4477 7 43 7C43.5523 7 44 6.55228 44 6V4C44 3.44772 44.4477 3 45 3H57C57.5523 3 58 3.44772 58 4V16C58 16.5523 57.5523 17 57 17H45C44.4477 17 44 16.5523 44 16V10C44 9.44771 43.5523 9 43 9C42.4477 9 42 9.44771 42 10V16C42 17.6569 43.3431 19 45 19H57C58.6569 19 60 17.6569 60 16V4C60 2.34315 58.6569 1 57 1Z" fill="#868686"/>
<path d="M47 41C47 43.2091 48.7909 45 51 45C53.2091 45 55 43.2091 55 41C55 38.7909 53.2091 37 51 37C48.7909 37 47 38.7909 47 41ZM53 41C53 42.1046 52.1046 43 51 43C49.8954 43 49 42.1046 49 41C49 39.8954 49.8954 39 51 39C52.1046 39 53 39.8954 53 41Z" fill="#868686"/>
<path d="M57 32H45C43.3431 32 42 33.3431 42 35V47C42 48.6569 43.3431 50 45 50H57C58.6569 50 60 48.6569 60 47V45C60 44.4477 59.5523 44 59 44C58.4477 44 58 44.4477 58 45V47C58 47.5523 57.5523 48 57 48H45C44.4477 48 44 47.5523 44 47V35C44 34.4477 44.4477 34 45 34H57C57.5523 34 58 34.4477 58 35V41C58 41.5523 58.4477 42 59 42C59.5523 42 60 41.5523 60 41V35C60 33.3431 58.6569 32 57 32Z" fill="#868686"/>
<path d="M22.47 12.8499C22.6291 12.9485 22.8128 13.0005 23 12.9999C23.1565 12.999 23.3107 12.9613 23.45 12.8899L29.45 9.8899C29.784 9.71881 29.994 9.37515 29.994 8.9999C29.994 8.62466 29.784 8.281 29.45 8.1099L23.45 5.1099C23.1405 4.95394 22.7723 4.96936 22.4769 5.15067C22.1815 5.33198 22.0011 5.65331 22 5.9999V11.9999C21.9993 12.3454 22.177 12.6668 22.47 12.8499ZM24 7.6199L26.76 8.9999L24 10.3799V7.6199Z" fill="#868686"/>
<path d="M25 18C29.9706 18 34 13.9706 34 9C34 4.02944 29.9706 0 25 0C20.0294 0 16 4.02944 16 9C16 13.9706 20.0294 18 25 18ZM25 2C28.866 2 32 5.13401 32 9C32 12.866 28.866 16 25 16C21.134 16 18 12.866 18 9C18 5.13401 21.134 2 25 2Z" fill="#868686"/>
<path d="M35 22.0001C35.3148 22.0001 35.6111 21.8519 35.8 21.6001L38.8 17.6001C39.1314 17.1582 39.0418 16.5314 38.6 16.2001C38.1582 15.8687 37.5314 15.9582 37.2 16.4001L34.2 20.4001C33.8686 20.8419 33.9582 21.4687 34.4 21.8001C34.5731 21.9299 34.7836 22.0001 35 22.0001Z" fill="#868686"/>
<path d="M37.2 25.6001C37.3889 25.8519 37.6852 26.0001 38 26.0001C38.2164 26.0001 38.4269 25.9299 38.6 25.8001L42.6 22.8001C43.0418 22.4687 43.1314 21.8419 42.8 21.4001C42.4686 20.9582 41.8418 20.8687 41.4 21.2001L37.4 24.2001C36.9582 24.5314 36.8686 25.1582 37.2 25.6001Z" fill="#868686"/>
<path d="M47 27.8001C46.952 27.5322 46.7968 27.2955 46.5704 27.1445C46.3439 26.9936 46.0657 26.9414 45.8 27.0001L40.8 28.0001C40.2477 28.0553 39.8448 28.5478 39.9 29.1001C39.9552 29.6524 40.4477 30.0553 41 30.0001H41.2L46.2 29.0001C46.4679 28.9521 46.7046 28.7969 46.8556 28.5705C47.0065 28.3441 47.0587 28.0659 47 27.8001Z" fill="#868686"/>
<path d="M1 28H13C13.5523 28 14 27.5523 14 27V11C14 10.4477 13.5523 10 13 10H1C0.447715 10 0 10.4477 0 11V27C0 27.5523 0.447715 28 1 28ZM2 12H12V26H2V12Z" fill="#868686"/>
<path d="M9 14H7C6.44772 14 6 14.4477 6 15C6 15.5523 6.44772 16 7 16H9C9.55228 16 10 15.5523 10 15C10 14.4477 9.55228 14 9 14Z" fill="#868686"/>
<path d="M9 18H5C4.44772 18 4 18.4477 4 19C4 19.5523 4.44772 20 5 20H9C9.55228 20 10 19.5523 10 19C10 18.4477 9.55228 18 9 18Z" fill="#868686"/>
<path d="M9 22H5C4.44772 22 4 22.4477 4 23C4 23.5523 4.44772 24 5 24H9C9.55228 24 10 23.5523 10 23C10 22.4477 9.55228 22 9 22Z" fill="#868686"/>
<path d="M34.12 27.7C33.9414 27.3892 33.6105 27.1973 33.252 27.1966C32.8935 27.1958 32.5619 27.3864 32.382 27.6966C32.2021 28.0067 32.2014 28.3892 32.38 28.7L36.79 36.33L20.79 42.33C20.79 42.33 20.79 42.33 20.72 42.33H20.64L18.04 43.83L16.31 44.83C15.85 45.0959 15.3031 45.1679 14.79 45.03C14.2796 44.8921 13.8446 44.5577 13.58 44.1L11.58 40.64C11.0915 39.7002 11.4204 38.5426 12.33 38L15.79 36L18.29 40.33C18.4693 40.6406 18.8013 40.8314 19.16 40.83C19.518 40.8314 19.8494 40.6414 20.029 40.3317C20.2086 40.0221 20.209 39.64 20.03 39.33L17.45 34.87L30 24.52L30.41 25.23C30.6861 25.7105 31.2995 25.8761 31.78 25.6C32.2605 25.3239 32.4261 24.7105 32.15 24.23L31.15 22.5C31.0017 22.2464 30.7493 22.0709 30.46 22.02C30.1691 21.9652 29.8688 22.0421 29.64 22.23L15.64 33.77L11.38 36.23C9.80777 37.1458 9.05166 39.0073 9.54001 40.76L8.54001 41.33C7.48627 41.9351 6.90162 43.1161 7.05935 44.321C7.21707 45.5258 8.08601 46.5165 9.26001 46.83C9.51449 46.8974 9.77674 46.931 10.04 46.93C10.5661 46.9278 11.0827 46.7901 11.54 46.53L12.54 45.96C13.0204 46.4562 13.6245 46.8153 14.29 47C14.6317 47.0956 14.9852 47.1427 15.34 47.14C16.0429 47.1416 16.7334 46.9552 17.34 46.6L18.21 46.1L20.21 49.57C21.0375 51.0007 22.8664 51.4926 24.3 50.67C24.9899 50.2725 25.4935 49.617 25.6998 48.848C25.9061 48.079 25.7983 47.2595 25.4 46.57L23.58 43.4L38.58 37.77C38.8553 37.6665 39.0712 37.447 39.17 37.17C39.2685 36.8963 39.2429 36.5933 39.1 36.34L34.12 27.7ZM10.5 44.79C10.27 44.923 9.99656 44.9589 9.74001 44.89C9.4838 44.8234 9.26444 44.658 9.13001 44.43C8.99704 44.2 8.96106 43.9266 9.03001 43.67C9.09896 43.4121 9.26819 43.1924 9.50001 43.06L10.37 42.56L11.37 44.29L10.5 44.79ZM23.66 47.59C23.793 47.82 23.8289 48.0934 23.76 48.35C23.6887 48.6042 23.5197 48.8199 23.29 48.95C22.8146 49.2231 22.208 49.0625 21.93 48.59L19.93 45.12L21.59 44.17H21.67L23.66 47.59Z" fill="#868686"/>
</svg>
